<?xml version="1.0" standalone="no"?>
<!DOCTYPE svg PUBLIC "-//W3C//DTD SVG 20010904//EN"
 "http://www.w3.org/TR/2001/REC-SVG-20010904/DTD/svg10.dtd">
<svg version="1.0" xmlns="http://www.w3.org/2000/svg"
 width="288.000000pt" height="288.000000pt" viewBox="0 0 288.000000 288.000000"
 preserveAspectRatio="xMidYMid meet">
<metadata>
Created by potrace 1.14, written by Peter Selinger 2001-2017
</metadata>
<g transform="translate(0.000000,288.000000) scale(0.100000,-0.100000)"
fill="#000000" stroke="none">
<path d="M1420 2689 c-30 -15 -79 -33 -108 -39 -37 -8 -66 -23 -98 -51 -25
-21 -50 -39 -56 -39 -22 0 -71 -45 -100 -91 -16 -27 -34 -49 -39 -49 -6 0 -19
-21 -30 -47 -11 -27 -24 -57 -30 -68 -5 -11 -16 -47 -24 -80 -8 -33 -22 -82
-31 -108 -18 -54 -14 -90 16 -152 31 -64 60 -155 60 -189 0 -53 -32 -126 -62
-142 -31 -16 -53 -10 -120 32 -93 59 -155 52 -239 -28 -60 -58 -133 -180 -148
-250 -6 -24 -21 -69 -35 -99 -36 -83 -41 -120 -21 -181 19 -62 37 -85 88 -117
44 -27 43 -26 58 -206 6 -77 15 -178 19 -225 8 -98 13 -88 -132 -275 -43 -55
-78 -103 -78 -107 0 -4 21 -32 48 -62 26 -30 54 -65 63 -78 10 -13 20 -20 24
-16 5 4 -18 42 -50 83 l-58 76 21 27 c12 15 52 68 89 119 37 51 71 92 74 93 3
0 9 -33 12 -74 5 -73 19 -116 36 -116 5 0 12 39 15 88 12 161 3 160 138 26
l117 -117 -31 -46 c-18 -25 -34 -48 -37 -51 -23 -20 -52 -74 -47 -87 5 -11 27
16 76 88 l70 104 -39 35 c-22 20 -83 78 -136 129 l-97 94 6 161 c11 249 22
317 70 421 l41 90 0 136 c0 175 -1 173 114 164 75 -6 94 -4 145 15 76 29 133
87 165 165 18 48 25 89 31 201 8 140 20 189 43 181 7 -2 17 -12 22 -23 6 -11
24 -42 41 -69 18 -28 35 -61 39 -75 9 -32 119 -137 213 -203 73 -52 74 -52 69
-90 -7 -51 9 -95 48 -132 29 -27 32 -37 38 -110 6 -67 31 -210 54 -303 3 -13
1 -33 -5 -45 -6 -12 -16 -56 -22 -97 -7 -41 -23 -127 -37 -190 -28 -130 -50
-255 -50 -285 0 -11 -4 -69 -8 -128 -8 -102 -10 -109 -32 -118 -54 -20 -292
-139 -298 -149 -4 -7 60 -10 197 -10 192 0 205 2 240 23 144 87 149 89 181 83
18 -3 45 -13 61 -21 19 -10 58 -15 122 -15 80 0 94 -2 94 -16 0 -12 5 -15 23
-9 12 4 42 9 67 11 37 3 41 2 21 -6 -20 -9 -22 -12 -10 -27 12 -15 11 -16 -9
-11 -12 4 -20 2 -16 -3 3 -5 23 -8 46 -7 l40 1 -28 16 -29 16 28 3 c49 6 28
27 -50 51 -43 12 -91 29 -108 36 -16 7 -50 16 -75 20 -25 3 -58 11 -75 16 -16
5 -43 10 -58 11 -19 2 -29 9 -33 24 -7 27 2 557 12 684 4 52 10 100 14 105 9
12 -6 55 -19 55 -18 0 -31 72 -41 223 -10 144 -9 146 16 203 16 35 23 66 19
81 -6 25 6 56 37 89 13 15 16 24 8 29 -28 17 -70 -57 -70 -125 0 -26 -9 -55
-25 -79 -30 -49 -38 -54 -75 -46 -24 5 -30 13 -35 43 -3 20 -13 52 -21 70 -8
18 -14 43 -14 55 0 12 -5 29 -10 37 -8 12 -11 13 -19 1 -12 -19 -45 -6 -126
51 -162 114 -186 138 -252 254 -34 60 -72 117 -84 126 -20 17 -22 17 -44 0
-13 -9 -27 -23 -29 -30 -3 -7 -10 -83 -16 -170 -6 -86 -15 -161 -20 -166 -7
-7 -10 7 -10 37 0 25 -9 86 -21 134 -30 127 -29 256 2 318 33 65 74 94 154
108 100 17 205 -18 205 -68 0 -27 62 -161 87 -190 10 -11 39 -35 64 -54 26
-18 52 -43 59 -55 6 -13 31 -36 55 -51 24 -15 52 -36 61 -46 9 -10 29 -19 44
-19 19 0 36 -11 57 -37 17 -21 48 -47 69 -58 22 -10 76 -56 122 -102 59 -60
89 -83 107 -83 23 0 25 4 25 40 0 23 -9 59 -21 81 -11 23 -18 43 -15 46 8 9
91 -64 151 -133 45 -50 63 -64 85 -64 24 0 30 5 35 31 8 37 -2 111 -21 158
-14 34 -14 34 6 16 11 -10 22 -27 26 -38 8 -26 72 -118 96 -137 19 -16 53
-160 44 -192 -2 -10 2 -22 10 -29 8 -6 14 -27 14 -46 0 -31 21 -55 36 -40 8 8
19 147 18 232 -1 71 -7 97 -39 180 -4 11 3 4 16 -15 29 -41 55 -50 64 -21 5
18 -23 179 -40 226 -4 11 4 5 18 -13 16 -22 27 -29 30 -20 4 10 6 10 6 1 1 -7
6 -13 11 -13 6 0 10 25 9 62 -2 63 -12 93 -82 248 -53 116 -134 189 -253 231
-37 13 -76 36 -104 63 -56 53 -114 90 -162 106 -26 8 -50 27 -75 60 -29 37
-56 58 -113 86 -41 20 -83 43 -92 52 -25 21 -103 33 -253 36 -127 3 -132 3
-185 -25z m332 -15 c33 -4 74 -19 108 -39 30 -18 74 -41 97 -50 26 -10 55 -34
78 -63 20 -26 55 -57 78 -69 l42 -21 -35 3 c-19 2 -37 4 -40 5 -3 1 -8 2 -11
2 -4 -1 -21 12 -40 29 -18 16 -51 34 -73 39 -79 19 -141 42 -171 65 -47 34
-117 61 -155 59 -19 -1 -70 -5 -113 -9 -55 -5 -82 -3 -93 6 -12 10 -11 14 8
28 16 11 55 18 133 22 61 3 116 4 122 3 7 -2 36 -6 65 -10z m-529 -149 c-6
-17 -22 -19 -43 -5 -13 9 -13 10 0 11 8 1 18 1 23 0 4 0 7 4 7 10 0 5 4 8 10
4 5 -3 7 -12 3 -20z m-117 -73 c-16 -15 -25 -20 -21 -12 13 25 38 50 44 45 3
-3 -8 -18 -23 -33z m-322 -815 c23 -16 34 -27 25 -24 -9 3 -40 8 -70 12 -75 8
-116 -14 -148 -79 l-23 -49 22 -101 c45 -206 45 -200 3 -303 -25 -62 -38 -74
-60 -52 -8 8 -2 19 23 41 28 25 34 37 34 70 0 38 -2 41 -48 60 l-49 21 23 46
c24 52 40 168 25 190 -8 13 -12 13 -27 0 -16 -13 -17 -12 -12 9 4 12 2 20 -3
16 -13 -8 -11 3 5 35 20 38 130 139 158 144 39 8 80 -4 122 -36z m890 -57 c13
0 63 -147 53 -156 -8 -9 -39 12 -75 49 -30 31 -32 37 -26 76 5 31 11 41 21 37
8 -4 20 -6 27 -6z m111 -210 c11 -12 22 -52 31 -112 7 -51 18 -115 24 -143 20
-99 28 -179 20 -195 -5 -9 -9 -41 -8 -71 0 -53 -9 -608 -11 -621 -1 -9 -55
-20 -97 -20 -19 0 -32 -4 -29 -8 3 -4 -2 -10 -10 -14 -8 -3 -16 -2 -19 2 -6
10 20 236 35 299 6 26 15 68 19 93 5 25 14 65 20 90 6 25 12 63 15 85 2 22 9
65 15 95 21 98 16 242 -13 389 -15 73 -27 137 -27 142 0 15 16 10 35 -11z
m-1225 -200 c9 -16 8 -20 -7 -21 -47 -3 -61 5 -43 26 17 21 37 19 50 -5z
m1608 -1077 c2 -9 -7 -13 -28 -13 -28 0 -31 2 -20 15 15 18 41 16 48 -2z"/>
<path d="M537 125 c-48 -98 -36 -127 49 -123 58 3 59 4 62 33 2 20 -6 42 -22
65 -14 19 -30 45 -35 58 -6 12 -14 22 -19 22 -4 0 -20 -25 -35 -55z m52 -47
c1 -31 -3 -38 -18 -38 -28 0 -35 34 -15 76 15 32 19 34 25 18 4 -10 8 -36 8
-56z"/>
<path d="M2792 20 c0 -14 2 -19 5 -12 2 6 2 18 0 25 -3 6 -5 1 -5 -13z"/>
<path d="M2827 20 c3 -13 14 -20 29 -20 17 0 24 6 24 20 0 15 -7 20 -29 20
-24 0 -28 -3 -24 -20z"/>
</g>
</svg>
